<svg xmlns="http://www.w3.org/2000/svg" viewBox="0 0 24 24" fill="white"><path d="M8.985 2.596v17.548l3.915 1.261V6.688c0-.69.304-1.151.794-.991.636.181.76.814.76 1.505v5.876c2.441 1.193 4.362-.002 4.362-3.153 0-3.237-1.126-4.675-4.438-5.827-1.307-.448-3.728-1.186-5.393-1.502zm6.668 18.882c2.268-.762 2.632-1.974 1.573-2.628-1.071-.66-3.015-1.129-3.015-1.129V20.2l3.907-1.399s2.039-.708 3.005-.262c.965.445.759 1.245-.461 1.827-1.22.582-5.009 1.112-5.009 1.112zM1.39 18.838c-1.254.616-1.448 1.49-.441 1.943 1.111.501 3.58.745 3.58.745l4.683-1.592v-2.463l-3.382 1.144s-1.611.579-3.201.026c-1.59-.553-.812-1.395.761-1.98l5.822-2.174v-2.53l-.812.283s-2.068.724-4.525 1.32c-2.457.597-3.737 1.972-2.485 3.278z"/></svg>