<svg xmlns="http://www.w3.org/2000/svg" viewBox="0 0 24 24" fill="white"><path d="M4.102 21.033A11.947 11.947 0 0 0 12 24a11.96 11.96 0 0 0 7.898-2.967c1.58-1.381.163-4.767-2.296-8.166-1.718-2.376-3.56-4.263-4.623-5.201a.9.9 0 0 0-1.158 0c-1.063.938-2.905 2.825-4.623 5.201-2.46 3.399-3.876 6.785-2.296 8.166zM12 2.4c1.777 0 3.443.46 4.896 1.26.263.145.425.476.168.822-.443.596-1.96 2.133-3.554 1.09A5.676 5.676 0 0 0 12 4.88a5.676 5.676 0 0 0-1.51.692c-1.593 1.043-3.11-.494-3.554-1.09-.257-.346-.095-.677.168-.822A9.554 9.554 0 0 1 12 2.4zM1.966 16.9c-.283-2.094.366-5.053 2.542-8.09.392-.547.882-1.12 1.432-1.706.26-.278.637-.238.868.045.55.672 1.222 1.124 1.814 1.29a.472.472 0 0 1 .155.085c-2.375 2.285-4.873 5.85-5.357 8.67a.481.481 0 0 1-.324.315c-.543.157-.961-.213-1.13-.609zm20.068 0c.283-2.094-.366-5.053-2.542-8.09a22.982 22.982 0 0 0-1.432-1.706c-.26-.278-.637-.238-.868.045-.55.672-1.222 1.124-1.814 1.29a.472.472 0 0 0-.155.085c2.375 2.285 4.873 5.85 5.357 8.67a.481.481 0 0 0 .324.315c.543.157.961-.213 1.13-.609z"/></svg>